<?xml version="1.0" encoding="UTF-8"?>
<svg width="30px" height="19px" viewBox="0 0 30 19" version="1.1" xmlns="http://www.w3.org/2000/svg" xmlns:xlink="http://www.w3.org/1999/xlink">
    <!-- Generator: sketchtool 51.2 (57519) - http://www.bohemiancoding.com/sketch -->
    <title>CAFAE1D3-DE9D-4DD1-A4B6-93922C7BED36</title>
    <desc>Created with sketchtool.</desc>
    <defs></defs>
    <g id="Symbols" stroke="none" stroke-width="1" fill="none" fill-rule="evenodd">
        <g id="Footer" transform="translate(-1319.000000, -45.000000)" fill="#FFFFFF">
            <g id="Group">
                <g id="behance2-copy-15" transform="translate(1319.000000, 45.000000)">
                    <path d="M27.0370302,2.66697761 L19.5354292,2.66697761 L19.5354292,0.794076493 L27.0376566,0.794076493 L27.0376566,2.66697761 L27.0370302,2.66697761 L27.0370302,2.66697761 Z M14.5414385,10.3471315 C15.0254756,11.1006996 15.267355,12.0156716 15.267355,13.0898787 C15.267355,14.2007463 14.9946404,15.1972948 14.4398144,16.0775653 C14.0868445,16.6600746 13.6486079,17.1521222 13.1220418,17.5482509 C12.5290023,18.0063666 11.826891,18.3204991 11.0197448,18.4883396 C10.2100232,18.6564599 9.33361949,18.7413946 8.38955916,18.7413946 L0,18.7413946 L0,0.0172807836 L8.99651972,0.0172807836 C11.2641995,0.0543610075 12.8718794,0.714738806 13.8212297,2.01163713 C14.3908817,2.80704291 14.6731323,3.76147388 14.6731323,4.8708722 C14.6731323,6.01560168 14.387471,6.93155317 13.8122506,7.62747201 C13.4922738,8.01765392 13.0195824,8.37257463 12.3938283,8.69293377 C13.3416473,9.04169776 14.0608121,9.59090485 14.5414385,10.3471315 L14.5414385,10.3471315 Z M4.2961949,7.39925373 L8.23809745,7.39925373 C9.04816705,7.39925373 9.70301624,7.24449627 10.2073782,6.93512127 C10.7113921,6.62623601 10.962877,6.07716884 10.962877,5.28882929 C10.962877,4.41786381 10.629884,3.83976213 9.96229698,3.56152052 C9.38846868,3.36821362 8.65426914,3.26865672 7.76338747,3.26865672 L4.2961949,3.26865672 L4.2961949,7.39925373 L4.2961949,7.39925373 Z M11.3424362,12.8224114 C11.3424362,11.8497901 10.9469374,11.1773787 10.1575406,10.8165812 C9.71610209,10.6115205 9.09327146,10.5067164 8.29468677,10.4992304 L4.2961949,10.4992304 L4.2961949,15.4891091 L8.23280742,15.4891091 C9.04155452,15.4891091 9.6675174,15.3826959 10.1192575,15.1607043 C10.9339211,14.752542 11.3424362,13.9757463 11.3424362,12.8224114 L11.3424362,12.8224114 Z M29.820348,9.77630597 C29.9109745,10.3888993 29.9519722,11.2777052 29.9353364,12.4394356 L20.2199304,12.4394356 C20.2735267,13.7873368 20.7364733,14.729944 21.614478,15.2693563 C22.1439675,15.6076259 22.7859397,15.7728078 23.5376798,15.7728078 C24.330348,15.7728078 24.9764269,15.5713853 25.4737587,15.1573461 C25.7447332,14.9378731 25.9837587,14.6280784 26.1904176,14.2371968 L29.7514385,14.2371968 C29.6581671,15.0333022 29.2293968,15.8407416 28.4588631,16.661264 C27.265058,17.9654384 25.5907657,18.6193797 23.4405104,18.6193797 C21.6641763,18.6193797 20.0986775,18.0678638 18.7398376,16.96882 C17.385522,15.8659282 16.7053364,14.0772621 16.7053364,11.5960354 C16.7053364,9.26928638 17.3159861,7.48838619 18.5413921,6.24878731 C19.7713225,5.00687966 21.3586079,4.38875933 23.3151508,4.38875933 C24.4748492,4.38875933 25.5202552,4.59710821 26.4529002,5.01597481 C27.3826218,5.43526119 28.1509977,6.09514925 28.7561485,7.00207556 C29.3038051,7.80076959 29.6560093,8.72427705 29.820348,9.77630597 L29.820348,9.77630597 Z M26.3152204,10.1256996 C26.2499304,9.19365672 25.9403248,8.48822295 25.3828538,8.00611007 C24.8299768,7.52266791 24.1392807,7.27996735 23.3151508,7.27996735 C22.4182135,7.27996735 21.7256381,7.53938899 21.2335267,8.04927705 C20.7380742,8.55811567 20.4297912,9.24990672 20.3034571,10.1257696 L26.3152204,10.1257696 L26.3152204,10.1256996 L26.3152204,10.1256996 Z" id="Behance"></path>
                </g>
            </g>
        </g>
    </g>
</svg>