<?xml version="1.0" encoding="UTF-8"?>
<svg width="30px" height="24px" viewBox="0 0 30 24" version="1.1" xmlns="http://www.w3.org/2000/svg" xmlns:xlink="http://www.w3.org/1999/xlink">
    <!-- Generator: sketchtool 51.2 (57519) - http://www.bohemiancoding.com/sketch -->
    <title>539F4094-9068-483E-9996-CB7FAEBFC015</title>
    <desc>Created with sketchtool.</desc>
    <defs></defs>
    <g id="Symbols" stroke="none" stroke-width="1" fill="none" fill-rule="evenodd">
        <g id="Footer" transform="translate(-1211.000000, -43.000000)" fill="#FFFFFF">
            <g id="Group">
                <g id="github13-copy-15" transform="translate(1211.000000, 43.000000)">
                    <path d="M21.903,0.166071429 C22.293,1.048575 22.5456667,2.51432143 22.1686667,3.587475 C23.7103333,4.89910714 24.2403333,8.08767857 23.496,10.6933393 C25.6933333,10.8604071 28.3106667,10.6129607 30,11.2848857 C28.4206667,11.0826107 26.2636667,10.6857 24.2266667,10.8238714 C23.8406667,10.8501107 23.269,10.8092571 23.297,11.3503179 C25.655,11.5346571 27.9983333,11.7356036 29.9343333,12.3377786 C28.014,12.0252321 25.683,11.5489393 23.297,11.4828429 C22.3113333,13.4208964 20.3276667,14.3734821 17.5893333,14.5740964 C17.8836667,15.212475 18.4473333,15.4552714 18.585,16.481925 C18.7903333,18.0157607 18.2636667,20.2620429 18.7833333,21.2843786 C19.0326667,21.7742893 19.439,21.7872429 19.713,22.206075 C19.0423333,22.9969071 17.3796667,22.1170607 17.1903333,21.2843786 C16.866,19.857825 17.6843333,17.6464179 16.793,16.6792179 C16.8556667,18.2353071 16.4236667,20.420475 16.8593333,21.8104929 C17.031,22.3572 17.5266667,22.5681107 17.3903333,23.0613429 C14.273,23.3765464 15.576,19.0410857 15.0663333,16.4815929 C14.596,16.5151393 14.8026667,17.1834107 14.801,17.4687214 C14.7876667,19.9677643 15.3143333,23.3954786 12.611,23.0613429 C12.532,22.5358929 12.9736667,22.3575321 13.142,21.8779179 C13.635,20.4719571 13.0496667,18.3764679 13.2756667,16.67955 C12.244,17.4547714 13.384,20.1604071 12.7446667,21.5477679 C12.3763333,22.3462393 11.1893333,22.6936607 10.289,22.3372714 C10.4063333,21.7427357 11.0223333,21.838725 11.2836667,21.2847107 C11.649,20.5128107 11.2863333,19.4001321 11.4166667,18.2585571 C9.507,18.6385286 8.02566667,18.2034214 7.30066667,17.0083714 C6.97633333,16.4719607 6.896,15.8392286 6.504,15.3639321 C6.114,14.8883036 5.49066667,14.8242 5.31,14.1805071 C7.675,13.6132071 7.76566667,16.6058143 9.88966667,16.67955 C10.541,16.7031321 10.8796667,16.4925536 11.4823333,16.3513929 C11.651,15.5967643 12.012,15.0337821 12.5443333,14.6398607 C9.90133333,14.2794857 7.71866667,13.459425 6.70366667,11.483175 C4.301,11.6007536 2.10233333,11.9206071 0.066,12.4035429 C1.91433333,11.7346071 4.194,11.4948 6.63766667,11.4160821 C6.49366667,10.5538393 5.23133333,10.7909893 4.44766667,10.8242036 C2.991,10.887975 1.15766667,11.0683286 0,11.2848857 C1.678,10.6886893 4.03266667,10.7630893 6.306,10.7584393 C5.61066667,8.586225 5.85166667,5.13559286 7.368,3.85053214 C6.93833333,2.7714 7.07166667,1.00639286 7.63333333,0.166071429 C9.32633333,0.2418 10.353,0.977496429 11.4166667,1.67964643 C12.7356667,1.30598571 14.1226667,1.11998571 15.93,1.21896429 C16.69,1.26081429 17.4803333,1.60126071 18.053,1.54745357 C18.6146667,1.494975 19.2336667,0.866892857 19.779,0.627085714 C20.4893333,0.314539286 21.0903333,0.1953 21.903,0.166071429 L21.903,0.166071429 Z" id="Github__x28_alt_x29_"></path>
                </g>
            </g>
        </g>
    </g>
</svg>