<?xml version="1.0" encoding="UTF-8"?>
<svg width="25px" height="25px" viewBox="0 0 25 25" version="1.1" xmlns="http://www.w3.org/2000/svg" xmlns:xlink="http://www.w3.org/1999/xlink">
    <!-- Generator: sketchtool 51.2 (57519) - http://www.bohemiancoding.com/sketch -->
    <title>FCE5DC3C-CC82-4772-851C-CEFD2062F1AD</title>
    <desc>Created with sketchtool.</desc>
    <defs></defs>
    <g id="Symbols" stroke="none" stroke-width="1" fill="none" fill-rule="evenodd">
        <g id="Footer" transform="translate(-1268.000000, -42.000000)" fill="#FFFFFF">
            <g id="Group">
                <g id="dribbble6-copy-15" transform="translate(1268.000000, 42.000000)">
                    <path d="M12.4738979,0 C5.58433875,0.000522041763 0,5.58520882 0,12.474942 C0,19.3634571 5.58433875,24.9487819 12.4738979,24.9487819 C19.3634571,24.9487819 24.9480278,19.3634571 24.9487819,12.474942 C24.9480278,5.58520882 19.3634571,0.000522041763 12.4738979,0 L12.4738979,0 Z M20.1171114,6.46786543 C21.3342227,8.01339907 22.0962877,9.92714617 22.1924014,12.0170534 C20.7841647,11.7181555 19.4535963,11.5726798 18.2131671,11.5726798 L18.2131671,11.5723898 L18.2040023,11.5723898 C17.2053364,11.5723898 16.2680974,11.663051 15.3847448,11.8197216 C15.1700696,11.2935615 14.9524362,10.7881671 14.7331787,10.3041183 C16.700464,9.4412413 18.5887471,8.21258701 20.1171114,6.46786543 L20.1171114,6.46786543 Z M12.4738979,2.7424594 C14.7694896,2.7424594 16.875406,3.5450116 18.5426914,4.88109049 C17.2668213,6.40858469 15.5827726,7.51484919 13.7635151,8.29599768 C12.4852088,5.82412993 11.25,4.05580046 10.4056265,2.97470998 C11.0740139,2.82639211 11.7639211,2.7424594 12.4738979,2.7424594 L12.4738979,2.7424594 Z M8.17523202,3.75696056 C8.85075406,4.55487239 10.2032483,6.30991879 11.6477958,9.050058 C8.70991879,9.92459397 5.75156613,10.1300464 3.96160093,10.1295244 C3.91055684,10.1295244 3.86009281,10.1295244 3.81055684,10.1290023 L3.80893271,10.1290023 C3.5074826,10.1290023 3.24825986,10.1242459 3.03184455,10.1176334 C3.73016241,7.32331787 5.64448956,5.00910673 8.17523202,3.75696056 L8.17523202,3.75696056 Z M2.74164733,12.474942 C2.74164733,12.4291763 2.74327146,12.3826566 2.74599768,12.3347448 C3.02389791,12.3450116 3.38027842,12.3538283 3.80922274,12.3538283 L3.81165893,12.3538283 C5.76798144,12.3410673 9.1837007,12.1776102 12.6453016,11.0847448 C12.8339907,11.4973318 13.0207657,11.9269142 13.2053944,12.3729118 C10.8937355,13.1460557 9.07308585,14.3777842 7.72645012,15.6044084 C6.4300464,16.7852088 5.55417633,17.9547564 5.04240139,18.7354988 C3.61032483,17.0399652 2.74240139,14.8610209 2.74164733,12.474942 L2.74164733,12.474942 Z M12.4738979,22.2075986 C10.3080626,22.2075986 8.31183295,21.4912993 6.69240139,20.2893852 C7.03660093,19.7225058 7.77459397,18.6342227 8.94976798,17.5096868 C10.1588747,16.3510441 11.8279582,15.1582947 14.0071926,14.4484919 C14.7479118,16.524884 15.4181555,18.8984919 15.9287123,21.5703596 C14.8531323,21.9799304 13.6909513,22.2075986 12.4738979,22.2075986 L12.4738979,22.2075986 Z M17.9820766,20.4794084 C17.4882831,18.062993 16.8675174,15.8840487 16.1859049,13.9395012 C16.8179814,13.8488399 17.4814965,13.7976798 18.1818445,13.7976798 L18.2070186,13.7976798 L18.2086427,13.7976798 L18.2102668,13.7976798 C19.3710557,13.7976798 20.6466357,13.9419374 22.0299884,14.2562645 C21.5511021,16.8296404 20.0605568,19.0459397 17.9820766,20.4794084 L17.9820766,20.4794084 Z" id="Dribbble"></path>
                </g>
            </g>
        </g>
    </g>
</svg>