<?xml version="1.0" encoding="UTF-8"?>
<svg width="28px" height="23px" viewBox="0 0 28 23" version="1.1" xmlns="http://www.w3.org/2000/svg" xmlns:xlink="http://www.w3.org/1999/xlink">
    <!-- Generator: sketchtool 51.2 (57519) - http://www.bohemiancoding.com/sketch -->
    <title>DBFCF15E-3036-4F9E-9546-C007C7ACA951</title>
    <desc>Created with sketchtool.</desc>
    <defs>
        <polyline id="path-1" points="0 0.0814821808 27.1050262 0.0814821808 27.1050262 22.1052632 0 22.1052632"></polyline>
    </defs>
    <g id="Symbols" stroke="none" stroke-width="1" fill="none" fill-rule="evenodd">
        <g id="Footer" transform="translate(-1156.000000, -43.000000)">
            <g id="Group">
                <g id="Twitter_icn" transform="translate(1156.000000, 43.000000)">
                    <mask id="mask-2" fill="white">
                        <use xlink:href="#path-1"></use>
                    </mask>
                    <g id="Clip-2"></g>
                    <path d="M27.1049865,2.68857494 C26.1076953,3.13077932 25.0360459,3.42974557 23.9110569,3.56406231 C25.0592456,2.8760236 25.9410339,1.78632334 26.3561506,0.48806042 C25.2817251,1.12524711 24.0916976,1.58787161 22.8249325,1.83727449 C21.8105884,0.756693887 20.3653637,0.0814425301 18.7659699,0.0814425301 C15.6946816,0.0814425301 13.2048739,2.57091149 13.2048739,5.64126316 C13.2048739,6.07712344 13.2540495,6.50138589 13.3488313,6.90830116 C8.72722555,6.67644371 4.62969591,4.46294359 1.88697144,1.09917678 C1.40830336,1.9203427 1.13407057,2.87542884 1.13407057,3.89435261 C1.13407057,5.82325985 2.11579619,7.52506774 3.60791604,8.52218362 C2.69638449,8.49333774 1.83888651,8.24314185 1.08915826,7.82671041 C1.08876168,7.84990607 1.08866253,7.87320085 1.08866253,7.89659476 C1.08866253,10.5904631 3.00551603,12.8376663 5.54945643,13.3484664 C5.08278479,13.4754477 4.5915254,13.5433495 4.08440295,13.5433495 C3.72599675,13.5433495 3.37770326,13.5085561 3.03813446,13.443628 C3.74582559,15.6525683 5.79949804,17.2600076 8.23289269,17.3050111 C6.32962195,18.7961747 3.9319192,19.684945 1.32650941,19.684945 C0.877683729,19.684945 0.435004985,19.6586764 -3.96576725e-05,19.6073288 C2.46101621,21.1848317 5.3839848,22.1052235 8.52437656,22.1052235 C18.752982,22.1052235 24.3462998,13.6332575 24.3462998,6.28598348 C24.3462998,6.04490725 24.3408469,5.80511966 24.3302385,5.56671985 C25.4166604,4.78282558 26.3594223,3.80355251 27.1049865,2.68857494" id="Fill-1" fill="#FFFFFF" mask="url(#mask-2)"></path>
                </g>
            </g>
        </g>
    </g>
</svg>